<?xml version="1.0" encoding="utf-8"?>
<!-- Generator: Adobe Illustrator 26.5.0, SVG Export Plug-In . SVG Version: 6.00 Build 0)  -->
<svg version="1.1" id="Layer_1" xmlns="http://www.w3.org/2000/svg" xmlns:xlink="http://www.w3.org/1999/xlink" x="0px" y="0px"
	 viewBox="0 0 66.1 11.2" style="enable-background:new 0 0 66.1 11.2;" xml:space="preserve">
<style type="text/css">
	.st0{fill:url(#SVGID_1_);}
</style>
<g>
	<linearGradient id="SVGID_1_" gradientUnits="userSpaceOnUse" x1="1.0588" y1="-1.2204" x2="60.9606" y2="16.1116">
		<stop  offset="0" style="stop-color:#00FFBF"/>
		<stop  offset="1" style="stop-color:#5739FF"/>
	</linearGradient>
	<path class="st0" d="M1.5,11.2C9.2,8,16.9,4.9,25.1,3.2c8.4-1.7,17-1.4,25.4,0.1c4.8,0.9,9.6,2.1,14.3,3.5c0.1-0.7,0.2-1.3,0.4-2
		C50.3,2.3,34.5,0.5,20,5.8c-1.2,0.4-0.8,2.3,0.4,2C26.8,6,33.5,5.7,40,7c1.2,0.2,1.9-1.7,0.6-1.9C33.8,3.8,26.7,4,20,5.8
		c0.1,0.7,0.3,1.3,0.4,2c14.4-5.2,29.9-3.5,44.6-0.9c1.1,0.2,1.4-1.6,0.4-2C56.9,2.4,48.2,0.4,39.3,0c-8.7-0.3-17.1,1.4-25.2,4.2
		C9.5,5.7,5,7.6,0.6,9.4C-0.6,9.9,0.3,11.6,1.5,11.2L1.5,11.2z"/>
</g>
</svg>
