<?xml version="1.0" encoding="utf-8"?>
<!-- Generator: Adobe Illustrator 26.5.0, SVG Export Plug-In . SVG Version: 6.00 Build 0)  -->
<svg version="1.1" id="Layer_1" xmlns="http://www.w3.org/2000/svg" xmlns:xlink="http://www.w3.org/1999/xlink" x="0px" y="0px"
	 viewBox="0 0 70.4 70.4" style="enable-background:new 0 0 70.4 70.4;" xml:space="preserve">
<style type="text/css">
	.st0{fill:#FFFFFF;}
</style>
<g>
	<path class="st0" d="M26.4,70.4c14.5,0,26.4-11.8,26.4-26.4c0-6.2-2.2-12-5.8-16.5L64.5,10v26.1c0,0.8,0.3,1.6,0.8,2.1
		c0.5,0.6,1.3,0.9,2.1,0.9s1.6-0.3,2.1-0.9s0.8-1.3,0.8-2.1V0H34.3c-1.1,0-2,0.5-2.6,1.5c-0.5,0.9-0.5,2,0,3
		c0.5,0.9,1.5,1.5,2.6,1.5h26.1L42.9,23.4c-4.5-3.6-10.3-5.8-16.5-5.8C11.8,17.6,0,29.4,0,44C0,58.5,11.8,70.4,26.4,70.4z"/>
</g>
</svg>
