<svg xmlns="http://www.w3.org/2000/svg" xmlns:xlink="http://www.w3.org/1999/xlink" width="96" zoomAndPan="magnify" viewBox="0 0 72 72" height="96" preserveAspectRatio="xMidYMid meet" version="1.0"><defs><clipPath id="c6581c9035"><path d="M 7 62 L 16 62 L 16 65.160156 L 7 65.160156 Z M 7 62 " clip-rule="nonzero"/></clipPath><clipPath id="9f127062a1"><path d="M 18 62 L 66 62 L 66 65.160156 L 18 65.160156 Z M 18 62 " clip-rule="nonzero"/></clipPath></defs><path fill="#33a750" d="M 29.46875 23.308594 C 28.886719 24.480469 28.128906 25.523438 27.191406 26.4375 C 26.25 27.347656 25.1875 28.078125 24 28.628906 C 21.667969 29.539062 19.253906 29.96875 16.75 29.925781 C 16.109375 29.941406 15.472656 29.890625 14.839844 29.769531 L 14.8125 49.25 C 14.8125 49.425781 14.777344 49.59375 14.710938 49.757812 C 14.644531 49.917969 14.546875 50.0625 14.421875 50.1875 C 14.296875 50.308594 14.15625 50.40625 13.992188 50.472656 C 13.832031 50.539062 13.660156 50.574219 13.484375 50.574219 C 13.308594 50.578125 13.140625 50.542969 12.976562 50.476562 C 12.8125 50.410156 12.667969 50.316406 12.542969 50.191406 C 12.417969 50.066406 12.324219 49.921875 12.253906 49.757812 C 12.1875 49.597656 12.15625 49.425781 12.15625 49.25 L 12.183594 35.832031 C 11.601562 35.992188 11.007812 36.0625 10.40625 36.042969 C 8.554688 36.078125 6.785156 35.714844 5.09375 34.957031 C 4.191406 34.496094 3.390625 33.898438 2.691406 33.164062 C 1.996094 32.425781 1.441406 31.597656 1.035156 30.667969 C 0.859375 30.175781 0.894531 29.699219 1.140625 29.238281 C 1.382812 28.761719 1.765625 28.453125 2.28125 28.3125 C 3.875 27.878906 5.46875 27.886719 7.058594 28.339844 C 8.132812 28.671875 9.113281 29.183594 9.996094 29.878906 C 10.878906 30.570312 11.609375 31.398438 12.183594 32.363281 L 12.210938 23.707031 C 12.210938 23.53125 12.246094 23.363281 12.3125 23.199219 C 12.378906 23.039062 12.476562 22.894531 12.601562 22.773438 C 12.726562 22.648438 12.867188 22.550781 13.03125 22.484375 C 13.195312 22.417969 13.363281 22.382812 13.539062 22.382812 C 13.714844 22.386719 13.882812 22.421875 14.042969 22.488281 C 14.203125 22.558594 14.347656 22.652344 14.472656 22.777344 C 14.59375 22.902344 14.691406 23.042969 14.757812 23.203125 C 14.828125 23.363281 14.863281 23.53125 14.867188 23.707031 L 14.839844 25.773438 C 15.636719 24.535156 16.628906 23.484375 17.820312 22.617188 C 19.011719 21.746094 20.320312 21.125 21.742188 20.742188 C 23.847656 20.179688 25.953125 20.171875 28.0625 20.714844 C 28.339844 20.777344 28.589844 20.894531 28.816406 21.0625 C 29.042969 21.234375 29.226562 21.441406 29.359375 21.691406 C 29.496094 21.941406 29.570312 22.207031 29.589844 22.488281 C 29.609375 22.773438 29.570312 23.046875 29.46875 23.308594 Z M 29.46875 23.308594 " fill-opacity="1" fill-rule="nonzero"/><path fill="#33a750" d="M 46.726562 49.304688 C 46.261719 50.277344 45.640625 51.140625 44.871094 51.894531 C 44.101562 52.648438 43.222656 53.25 42.238281 53.699219 C 40.335938 54.445312 38.363281 54.804688 36.320312 54.785156 C 35.890625 54.785156 35.46875 54.761719 35.042969 54.703125 L 35.019531 63.625 C 35.015625 63.800781 34.984375 63.96875 34.914062 64.128906 C 34.847656 64.292969 34.753906 64.433594 34.628906 64.558594 C 34.503906 64.683594 34.359375 64.777344 34.199219 64.847656 C 34.035156 64.914062 33.867188 64.949219 33.691406 64.949219 C 33.515625 64.945312 33.347656 64.910156 33.183594 64.84375 C 33.023438 64.773438 32.882812 64.679688 32.757812 64.554688 C 32.632812 64.429688 32.539062 64.289062 32.46875 64.128906 C 32.402344 63.96875 32.367188 63.800781 32.363281 63.625 L 32.390625 59.574219 C 32.011719 59.632812 31.628906 59.65625 31.246094 59.652344 C 29.722656 59.683594 28.261719 59.390625 26.867188 58.78125 C 25.316406 57.988281 24.195312 56.796875 23.496094 55.207031 C 23.328125 54.738281 23.355469 54.277344 23.574219 53.832031 C 23.820312 53.394531 24.183594 53.101562 24.664062 52.957031 C 25.996094 52.605469 27.324219 52.621094 28.644531 53.011719 C 30.167969 53.484375 31.414062 54.347656 32.390625 55.605469 L 32.414062 49.542969 C 32.421875 49.367188 32.460938 49.203125 32.53125 49.042969 C 32.601562 48.886719 32.699219 48.746094 32.820312 48.621094 C 32.941406 48.5 33.085938 48.402344 33.242188 48.332031 C 33.402344 48.265625 33.570312 48.226562 33.742188 48.21875 C 33.917969 48.222656 34.085938 48.257812 34.246094 48.324219 C 34.410156 48.394531 34.550781 48.488281 34.675781 48.613281 C 34.800781 48.734375 34.894531 48.878906 34.964844 49.039062 C 35.03125 49.199219 35.066406 49.367188 35.070312 49.542969 L 35.070312 50.335938 C 36.417969 48.628906 38.144531 47.492188 40.246094 46.921875 C 41.972656 46.457031 43.695312 46.449219 45.425781 46.894531 C 45.980469 47.03125 46.394531 47.351562 46.671875 47.847656 C 46.914062 48.324219 46.933594 48.8125 46.726562 49.304688 Z M 46.726562 49.304688 " fill-opacity="1" fill-rule="nonzero"/><path fill="#4587c7" d="M 21.886719 39.339844 L 20.414062 37.84375 C 20.296875 37.722656 20.15625 37.628906 20 37.5625 C 19.84375 37.492188 19.679688 37.457031 19.511719 37.449219 C 19.339844 37.445312 19.175781 37.472656 19.015625 37.53125 C 18.855469 37.589844 18.710938 37.671875 18.582031 37.785156 L 15.71875 40.347656 L 9.335938 40.269531 C 8.980469 40.296875 8.667969 40.425781 8.390625 40.648438 C 8.128906 40.902344 7.996094 41.214844 7.992188 41.582031 L 7.976562 43.675781 C 7.972656 43.847656 8.003906 44.019531 8.070312 44.179688 C 8.136719 44.34375 8.230469 44.488281 8.355469 44.613281 C 8.480469 44.738281 8.621094 44.835938 8.785156 44.902344 C 8.945312 44.972656 9.113281 45.007812 9.289062 45.007812 L 14.6875 45.054688 L 17.261719 45.074219 L 17.269531 45.074219 C 17.625 45.074219 17.929688 44.953125 18.1875 44.710938 L 21.855469 41.226562 C 21.984375 41.101562 22.085938 40.960938 22.15625 40.796875 C 22.230469 40.636719 22.265625 40.464844 22.269531 40.289062 C 22.273438 40.109375 22.242188 39.941406 22.175781 39.773438 C 22.109375 39.609375 22.011719 39.464844 21.886719 39.339844 Z M 21.886719 39.339844 " fill-opacity="1" fill-rule="nonzero"/><path fill="#f5bb18" d="M 32.753906 37.921875 L 32.722656 41.488281 C 32.71875 41.605469 32.695312 41.71875 32.644531 41.828125 C 32.597656 41.933594 32.527344 42.027344 32.441406 42.105469 C 32.351562 42.1875 32.25 42.242188 32.136719 42.28125 C 32.023438 42.316406 31.910156 42.328125 31.789062 42.316406 L 22.527344 41.335938 C 22.3125 41.3125 22.132812 41.21875 21.988281 41.058594 C 21.84375 40.898438 21.773438 40.707031 21.773438 40.492188 L 21.789062 38.730469 C 21.792969 38.515625 21.867188 38.328125 22.011719 38.167969 C 22.160156 38.007812 22.339844 37.921875 22.558594 37.902344 L 31.835938 37.078125 C 31.953125 37.070312 32.070312 37.082031 32.183594 37.121094 C 32.292969 37.160156 32.394531 37.21875 32.480469 37.300781 C 32.570312 37.378906 32.636719 37.472656 32.683594 37.582031 C 32.730469 37.691406 32.753906 37.804688 32.753906 37.921875 Z M 32.753906 37.921875 " fill-opacity="1" fill-rule="nonzero"/><path fill="#6d4132" d="M 24.632812 39.609375 C 24.632812 40.007812 24.558594 40.394531 24.402344 40.765625 C 24.25 41.132812 24.03125 41.460938 23.746094 41.742188 C 23.460938 42.027344 23.136719 42.246094 22.765625 42.398438 C 22.394531 42.550781 22.007812 42.628906 21.605469 42.628906 C 21.203125 42.628906 20.816406 42.550781 20.445312 42.398438 C 20.074219 42.246094 19.746094 42.027344 19.460938 41.742188 C 19.179688 41.460938 18.960938 41.132812 18.804688 40.765625 C 18.652344 40.394531 18.574219 40.007812 18.574219 39.609375 C 18.574219 39.207031 18.652344 38.820312 18.804688 38.453125 C 18.960938 38.082031 19.179688 37.753906 19.460938 37.472656 C 19.746094 37.1875 20.074219 36.972656 20.445312 36.816406 C 20.816406 36.664062 21.203125 36.585938 21.605469 36.585938 C 22.007812 36.585938 22.394531 36.664062 22.765625 36.816406 C 23.136719 36.972656 23.460938 37.1875 23.746094 37.472656 C 24.03125 37.753906 24.25 38.082031 24.402344 38.453125 C 24.558594 38.820312 24.632812 39.207031 24.632812 39.609375 Z M 24.632812 39.609375 " fill-opacity="1" fill-rule="nonzero"/><path fill="#f5bb18" d="M 39.964844 22.167969 L 44.941406 25.164062 C 45.105469 25.265625 45.242188 25.394531 45.355469 25.550781 C 45.464844 25.707031 45.539062 25.882812 45.574219 26.070312 C 45.613281 26.257812 45.609375 26.449219 45.566406 26.636719 C 45.523438 26.824219 45.445312 26.992188 45.328125 27.148438 L 36.273438 39.25 C 36.171875 39.382812 36.050781 39.496094 35.90625 39.589844 C 35.761719 39.679688 35.605469 39.738281 35.441406 39.773438 C 35.273438 39.804688 35.105469 39.804688 34.9375 39.777344 C 34.769531 39.746094 34.613281 39.6875 34.46875 39.601562 L 32.011719 38.121094 C 31.867188 38.03125 31.742188 37.921875 31.636719 37.785156 C 31.53125 37.652344 31.457031 37.503906 31.40625 37.34375 C 31.359375 37.179688 31.339844 37.015625 31.355469 36.84375 C 31.367188 36.675781 31.410156 36.515625 31.484375 36.363281 L 38.023438 22.746094 C 38.105469 22.570312 38.222656 22.421875 38.371094 22.296875 C 38.515625 22.171875 38.683594 22.082031 38.867188 22.027344 C 39.050781 21.972656 39.238281 21.957031 39.429688 21.980469 C 39.625 22.003906 39.800781 22.066406 39.964844 22.167969 Z M 39.964844 22.167969 " fill-opacity="1" fill-rule="nonzero"/><path fill="#4587c7" d="M 38.011719 39.109375 C 38.011719 39.429688 37.980469 39.75 37.917969 40.066406 C 37.855469 40.382812 37.761719 40.6875 37.636719 40.984375 C 37.515625 41.285156 37.363281 41.566406 37.183594 41.835938 C 37.003906 42.101562 36.800781 42.351562 36.570312 42.578125 C 36.34375 42.804688 36.09375 43.007812 35.824219 43.1875 C 35.554688 43.367188 35.273438 43.519531 34.972656 43.640625 C 34.675781 43.765625 34.367188 43.859375 34.050781 43.921875 C 33.734375 43.984375 33.414062 44.015625 33.089844 44.015625 C 32.765625 44.015625 32.445312 43.984375 32.128906 43.921875 C 31.8125 43.859375 31.503906 43.765625 31.207031 43.640625 C 30.90625 43.519531 30.625 43.367188 30.355469 43.1875 C 30.085938 43.007812 29.839844 42.804688 29.609375 42.578125 C 29.382812 42.351562 29.175781 42.101562 28.996094 41.835938 C 28.816406 41.566406 28.667969 41.285156 28.542969 40.984375 C 28.417969 40.6875 28.324219 40.382812 28.261719 40.066406 C 28.199219 39.75 28.167969 39.429688 28.167969 39.109375 C 28.167969 38.785156 28.199219 38.464844 28.261719 38.148438 C 28.324219 37.835938 28.417969 37.527344 28.542969 37.230469 C 28.667969 36.933594 28.816406 36.648438 28.996094 36.382812 C 29.175781 36.113281 29.382812 35.867188 29.609375 35.636719 C 29.839844 35.410156 30.085938 35.207031 30.355469 35.027344 C 30.625 34.847656 30.90625 34.695312 31.207031 34.574219 C 31.503906 34.449219 31.8125 34.355469 32.128906 34.292969 C 32.445312 34.230469 32.765625 34.199219 33.089844 34.199219 C 33.414062 34.199219 33.734375 34.230469 34.050781 34.292969 C 34.367188 34.355469 34.675781 34.449219 34.972656 34.574219 C 35.273438 34.695312 35.554688 34.847656 35.824219 35.027344 C 36.09375 35.207031 36.34375 35.410156 36.570312 35.636719 C 36.800781 35.867188 37.003906 36.113281 37.183594 36.382812 C 37.363281 36.648438 37.515625 36.933594 37.636719 37.230469 C 37.761719 37.527344 37.855469 37.835938 37.917969 38.148438 C 37.980469 38.464844 38.011719 38.785156 38.011719 39.109375 Z M 38.011719 39.109375 " fill-opacity="1" fill-rule="nonzero"/><path fill="#f5bb18" d="M 58.730469 33.429688 L 54.46875 37.367188 C 54.324219 37.496094 54.164062 37.59375 53.980469 37.65625 C 53.796875 37.71875 53.609375 37.742188 53.417969 37.726562 C 53.226562 37.707031 53.046875 37.652344 52.875 37.5625 C 52.707031 37.46875 52.566406 37.34375 52.449219 37.191406 L 43.285156 25.171875 C 43.179688 25.039062 43.105469 24.890625 43.058594 24.726562 C 43.011719 24.5625 42.996094 24.398438 43.007812 24.226562 C 43.023438 24.058594 43.070312 23.898438 43.144531 23.746094 C 43.21875 23.59375 43.316406 23.460938 43.441406 23.34375 L 45.550781 21.398438 C 45.675781 21.285156 45.816406 21.195312 45.972656 21.132812 C 46.132812 21.070312 46.296875 21.039062 46.464844 21.035156 C 46.636719 21.035156 46.800781 21.0625 46.957031 21.121094 C 47.117188 21.183594 47.261719 21.269531 47.386719 21.378906 L 58.710938 31.40625 C 58.855469 31.535156 58.964844 31.6875 59.046875 31.859375 C 59.125 32.035156 59.167969 32.21875 59.171875 32.414062 C 59.171875 32.605469 59.136719 32.789062 59.058594 32.964844 C 58.980469 33.144531 58.875 33.296875 58.730469 33.429688 Z M 58.730469 33.429688 " fill-opacity="1" fill-rule="nonzero"/><path fill="#4587c7" d="M 49.222656 22.160156 C 49.222656 22.484375 49.191406 22.800781 49.128906 23.117188 C 49.0625 23.433594 48.972656 23.742188 48.847656 24.039062 C 48.722656 24.335938 48.570312 24.621094 48.390625 24.886719 C 48.210938 25.15625 48.007812 25.402344 47.78125 25.632812 C 47.550781 25.859375 47.304688 26.0625 47.035156 26.242188 C 46.765625 26.421875 46.480469 26.570312 46.183594 26.695312 C 45.882812 26.820312 45.578125 26.910156 45.261719 26.972656 C 44.941406 27.039062 44.621094 27.070312 44.300781 27.070312 C 43.976562 27.070312 43.65625 27.039062 43.339844 26.972656 C 43.023438 26.910156 42.714844 26.820312 42.414062 26.695312 C 42.117188 26.570312 41.832031 26.421875 41.566406 26.242188 C 41.296875 26.0625 41.046875 25.859375 40.820312 25.632812 C 40.589844 25.402344 40.386719 25.15625 40.207031 24.886719 C 40.027344 24.621094 39.875 24.335938 39.75 24.039062 C 39.628906 23.742188 39.535156 23.433594 39.472656 23.117188 C 39.410156 22.800781 39.378906 22.484375 39.378906 22.160156 C 39.378906 21.839844 39.410156 21.519531 39.472656 21.203125 C 39.535156 20.886719 39.628906 20.582031 39.75 20.28125 C 39.875 19.984375 40.027344 19.703125 40.207031 19.433594 C 40.386719 19.167969 40.589844 18.917969 40.820312 18.691406 C 41.046875 18.464844 41.296875 18.257812 41.566406 18.082031 C 41.832031 17.902344 42.117188 17.75 42.414062 17.628906 C 42.714844 17.503906 43.023438 17.410156 43.339844 17.347656 C 43.65625 17.285156 43.976562 17.253906 44.300781 17.253906 C 44.621094 17.253906 44.941406 17.285156 45.261719 17.347656 C 45.578125 17.410156 45.882812 17.503906 46.183594 17.628906 C 46.480469 17.75 46.765625 17.902344 47.035156 18.082031 C 47.304688 18.257812 47.550781 18.464844 47.78125 18.691406 C 48.007812 18.917969 48.210938 19.167969 48.390625 19.433594 C 48.570312 19.703125 48.722656 19.984375 48.847656 20.28125 C 48.972656 20.582031 49.0625 20.886719 49.128906 21.203125 C 49.191406 21.519531 49.222656 21.839844 49.222656 22.160156 Z M 49.222656 22.160156 " fill-opacity="1" fill-rule="nonzero"/><path fill="#f5bb18" d="M 62.011719 63.921875 L 53.128906 63.921875 C 52.835938 63.921875 52.550781 63.863281 52.28125 63.742188 C 52.011719 63.625 51.777344 63.453125 51.582031 63.238281 C 51.382812 63.019531 51.238281 62.769531 51.144531 62.492188 C 51.050781 62.210938 51.019531 61.925781 51.046875 61.632812 L 53.292969 38.671875 C 53.320312 38.414062 53.390625 38.167969 53.507812 37.9375 C 53.625 37.707031 53.777344 37.503906 53.972656 37.328125 C 54.164062 37.15625 54.378906 37.023438 54.625 36.929688 C 54.867188 36.835938 55.117188 36.789062 55.375 36.789062 L 59.765625 36.789062 C 60.023438 36.789062 60.277344 36.835938 60.519531 36.929688 C 60.761719 37.023438 60.976562 37.15625 61.171875 37.328125 C 61.363281 37.503906 61.515625 37.707031 61.632812 37.9375 C 61.75 38.167969 61.820312 38.414062 61.847656 38.671875 L 64.09375 61.632812 C 64.121094 61.925781 64.089844 62.210938 63.996094 62.492188 C 63.90625 62.769531 63.757812 63.019531 63.5625 63.238281 C 63.363281 63.453125 63.128906 63.625 62.859375 63.742188 C 62.589844 63.863281 62.308594 63.921875 62.011719 63.921875 Z M 62.011719 63.921875 " fill-opacity="1" fill-rule="nonzero"/><path fill="#4587c7" d="M 65.09375 36.347656 C 65.09375 36.839844 65.046875 37.328125 64.949219 37.808594 C 64.851562 38.292969 64.710938 38.761719 64.519531 39.214844 C 64.332031 39.671875 64.101562 40.105469 63.824219 40.511719 C 63.550781 40.921875 63.238281 41.300781 62.890625 41.648438 C 62.542969 41.996094 62.160156 42.308594 61.75 42.582031 C 61.339844 42.855469 60.90625 43.085938 60.449219 43.273438 C 59.992188 43.464844 59.523438 43.605469 59.039062 43.703125 C 58.554688 43.796875 58.066406 43.847656 57.570312 43.847656 C 57.078125 43.847656 56.589844 43.796875 56.105469 43.703125 C 55.621094 43.605469 55.148438 43.464844 54.695312 43.273438 C 54.238281 43.085938 53.804688 42.855469 53.394531 42.582031 C 52.984375 42.308594 52.601562 41.996094 52.253906 41.648438 C 51.902344 41.300781 51.59375 40.921875 51.316406 40.511719 C 51.042969 40.105469 50.8125 39.671875 50.621094 39.214844 C 50.433594 38.761719 50.292969 38.292969 50.195312 37.808594 C 50.097656 37.328125 50.050781 36.839844 50.050781 36.347656 C 50.050781 35.855469 50.097656 35.367188 50.195312 34.882812 C 50.292969 34.402344 50.433594 33.933594 50.621094 33.476562 C 50.8125 33.023438 51.042969 32.589844 51.316406 32.179688 C 51.59375 31.769531 51.902344 31.390625 52.253906 31.042969 C 52.601562 30.695312 52.984375 30.386719 53.394531 30.113281 C 53.804688 29.839844 54.238281 29.605469 54.695312 29.417969 C 55.148438 29.230469 55.621094 29.085938 56.105469 28.992188 C 56.589844 28.894531 57.078125 28.847656 57.570312 28.847656 C 58.066406 28.847656 58.554688 28.894531 59.039062 28.992188 C 59.523438 29.085938 59.992188 29.230469 60.449219 29.417969 C 60.90625 29.605469 61.339844 29.839844 61.75 30.113281 C 62.160156 30.386719 62.542969 30.695312 62.890625 31.042969 C 63.238281 31.390625 63.550781 31.769531 63.824219 32.179688 C 64.101562 32.589844 64.332031 33.023438 64.519531 33.476562 C 64.710938 33.933594 64.851562 34.402344 64.949219 34.882812 C 65.046875 35.367188 65.09375 35.855469 65.09375 36.347656 Z M 65.09375 36.347656 " fill-opacity="1" fill-rule="nonzero"/><g clip-path="url(#c6581c9035)"><path fill="#6d4132" d="M 14.3125 62.589844 L 8.6875 62.589844 C 8.511719 62.589844 8.34375 62.625 8.179688 62.691406 C 8.019531 62.757812 7.875 62.855469 7.75 62.980469 C 7.625 63.101562 7.53125 63.246094 7.460938 63.410156 C 7.394531 63.570312 7.359375 63.738281 7.359375 63.914062 C 7.359375 64.089844 7.394531 64.257812 7.460938 64.421875 C 7.53125 64.582031 7.625 64.726562 7.75 64.851562 C 7.875 64.976562 8.019531 65.070312 8.179688 65.136719 C 8.34375 65.203125 8.511719 65.238281 8.6875 65.238281 L 14.3125 65.238281 C 14.488281 65.238281 14.65625 65.203125 14.820312 65.136719 C 14.980469 65.070312 15.125 64.976562 15.25 64.851562 C 15.375 64.726562 15.46875 64.582031 15.539062 64.421875 C 15.605469 64.257812 15.640625 64.089844 15.640625 63.914062 C 15.640625 63.738281 15.605469 63.570312 15.539062 63.410156 C 15.46875 63.246094 15.375 63.101562 15.25 62.980469 C 15.125 62.855469 14.980469 62.757812 14.820312 62.691406 C 14.65625 62.625 14.488281 62.589844 14.3125 62.589844 Z M 14.3125 62.589844 " fill-opacity="1" fill-rule="evenodd"/></g><g clip-path="url(#9f127062a1)"><path fill="#6d4132" d="M 64.589844 62.589844 L 19.789062 62.589844 C 19.613281 62.589844 19.441406 62.625 19.28125 62.691406 C 19.117188 62.757812 18.972656 62.855469 18.847656 62.980469 C 18.722656 63.101562 18.628906 63.246094 18.5625 63.410156 C 18.492188 63.570312 18.460938 63.738281 18.460938 63.914062 C 18.460938 64.089844 18.492188 64.257812 18.5625 64.421875 C 18.628906 64.582031 18.722656 64.726562 18.847656 64.851562 C 18.972656 64.976562 19.117188 65.070312 19.28125 65.136719 C 19.441406 65.203125 19.613281 65.238281 19.789062 65.238281 L 64.589844 65.238281 C 64.765625 65.238281 64.9375 65.203125 65.097656 65.136719 C 65.261719 65.070312 65.40625 64.976562 65.53125 64.851562 C 65.652344 64.726562 65.75 64.582031 65.816406 64.421875 C 65.886719 64.257812 65.917969 64.089844 65.917969 63.914062 C 65.917969 63.738281 65.886719 63.570312 65.816406 63.410156 C 65.75 63.246094 65.652344 63.101562 65.53125 62.980469 C 65.40625 62.855469 65.261719 62.757812 65.097656 62.691406 C 64.9375 62.625 64.765625 62.589844 64.589844 62.589844 Z M 64.589844 62.589844 " fill-opacity="1" fill-rule="evenodd"/></g><path fill="#4587c7" d="M 59.417969 21.273438 C 59.230469 21.882812 58.867188 22.359375 58.328125 22.703125 C 57.757812 23.015625 57.15625 23.097656 56.523438 22.9375 C 56.222656 22.859375 55.945312 22.726562 55.699219 22.539062 C 55.449219 22.351562 55.246094 22.125 55.089844 21.855469 C 54.933594 21.589844 54.835938 21.300781 54.792969 20.992188 C 54.75 20.683594 54.769531 20.378906 54.851562 20.082031 C 55.003906 19.445312 55.367188 18.96875 55.9375 18.652344 L 56.019531 18.597656 C 56.5625 18.316406 57.128906 18.253906 57.71875 18.414062 C 58.355469 18.566406 58.832031 18.925781 59.152344 19.5 C 59.496094 20.050781 59.582031 20.644531 59.417969 21.273438 Z M 59.417969 21.273438 " fill-opacity="1" fill-rule="evenodd"/><path fill="#4587c7" d="M 56.558594 15.371094 C 56.386719 15.417969 56.214844 15.429688 56.042969 15.40625 C 55.867188 15.382812 55.703125 15.332031 55.550781 15.242188 C 55.398438 15.15625 55.265625 15.042969 55.160156 14.90625 C 55.050781 14.765625 54.976562 14.613281 54.929688 14.445312 C 54.882812 14.273438 54.871094 14.101562 54.890625 13.929688 C 54.914062 13.753906 54.96875 13.59375 55.054688 13.441406 C 55.144531 13.289062 55.257812 13.160156 55.394531 13.050781 C 55.535156 12.945312 55.6875 12.867188 55.859375 12.820312 C 56.171875 12.734375 56.492188 12.667969 56.816406 12.625 C 57.140625 12.582031 57.464844 12.558594 57.789062 12.554688 C 58.117188 12.554688 58.441406 12.574219 58.765625 12.613281 C 59.089844 12.65625 59.410156 12.714844 59.726562 12.796875 C 60.042969 12.878906 60.351562 12.984375 60.652344 13.105469 C 60.957031 13.230469 61.25 13.371094 61.53125 13.53125 C 61.816406 13.691406 62.089844 13.871094 62.347656 14.066406 C 62.609375 14.265625 62.855469 14.476562 63.085938 14.707031 C 63.320312 14.933594 63.535156 15.175781 63.738281 15.433594 C 63.9375 15.691406 64.121094 15.960938 64.285156 16.242188 C 64.449219 16.519531 64.597656 16.8125 64.722656 17.113281 C 64.851562 17.410156 64.957031 17.71875 65.042969 18.03125 C 65.132812 18.347656 65.195312 18.664062 65.242188 18.988281 C 65.285156 19.308594 65.308594 19.632812 65.3125 19.957031 C 65.316406 20.285156 65.296875 20.609375 65.253906 20.929688 C 65.214844 21.253906 65.15625 21.574219 65.070312 21.886719 C 65.027344 22.058594 64.953125 22.214844 64.847656 22.351562 C 64.738281 22.492188 64.609375 22.605469 64.457031 22.695312 C 64.304688 22.785156 64.144531 22.839844 63.96875 22.863281 C 63.792969 22.886719 63.621094 22.878906 63.453125 22.832031 C 63.28125 22.789062 63.128906 22.710938 62.988281 22.605469 C 62.847656 22.5 62.730469 22.371094 62.644531 22.21875 C 62.554688 22.070312 62.5 21.90625 62.476562 21.730469 C 62.453125 21.558594 62.460938 21.386719 62.507812 21.21875 C 62.585938 20.910156 62.636719 20.601562 62.65625 20.285156 C 62.675781 19.96875 62.664062 19.65625 62.621094 19.34375 C 62.574219 19.03125 62.503906 18.722656 62.398438 18.425781 C 62.292969 18.128906 62.164062 17.84375 62 17.570312 C 61.839844 17.296875 61.65625 17.042969 61.445312 16.808594 C 61.234375 16.570312 61.003906 16.359375 60.75 16.167969 C 60.496094 15.976562 60.226562 15.8125 59.941406 15.675781 C 59.65625 15.539062 59.359375 15.433594 59.054688 15.351562 C 58.640625 15.246094 58.222656 15.195312 57.800781 15.195312 C 57.378906 15.199219 56.964844 15.257812 56.558594 15.371094 Z M 56.558594 15.371094 " fill-opacity="1" fill-rule="evenodd"/><path fill="#4587c7" d="M 55.933594 10.359375 C 55.761719 10.40625 55.589844 10.417969 55.417969 10.394531 C 55.242188 10.371094 55.078125 10.316406 54.925781 10.230469 C 54.773438 10.144531 54.644531 10.03125 54.535156 9.894531 C 54.429688 9.753906 54.351562 9.601562 54.304688 9.433594 C 54.257812 9.261719 54.246094 9.09375 54.269531 8.917969 C 54.292969 8.746094 54.347656 8.582031 54.433594 8.429688 C 54.519531 8.277344 54.632812 8.148438 54.773438 8.039062 C 54.910156 7.933594 55.0625 7.855469 55.234375 7.808594 C 55.742188 7.671875 56.261719 7.5625 56.785156 7.492188 C 57.308594 7.421875 57.832031 7.382812 58.363281 7.378906 C 58.890625 7.375 59.417969 7.40625 59.941406 7.472656 C 60.464844 7.539062 60.984375 7.636719 61.496094 7.769531 C 62.007812 7.902344 62.507812 8.070312 62.996094 8.269531 C 63.484375 8.46875 63.960938 8.695312 64.417969 8.957031 C 64.878906 9.21875 65.320312 9.507812 65.742188 9.824219 C 66.160156 10.144531 66.558594 10.488281 66.9375 10.855469 C 67.3125 11.226562 67.664062 11.621094 67.988281 12.035156 C 68.3125 12.453125 68.609375 12.886719 68.875 13.339844 C 69.144531 13.796875 69.378906 14.265625 69.585938 14.75 C 69.789062 15.238281 69.964844 15.734375 70.105469 16.242188 C 70.242188 16.75 70.351562 17.265625 70.421875 17.785156 C 70.496094 18.308594 70.535156 18.832031 70.539062 19.359375 C 70.542969 19.886719 70.511719 20.410156 70.445312 20.933594 C 70.378906 21.457031 70.28125 21.972656 70.148438 22.484375 C 70.101562 22.652344 70.027344 22.808594 69.921875 22.945312 C 69.816406 23.085938 69.683594 23.199219 69.535156 23.289062 C 69.382812 23.378906 69.21875 23.433594 69.042969 23.457031 C 68.871094 23.480469 68.699219 23.46875 68.527344 23.425781 C 68.359375 23.382812 68.203125 23.304688 68.0625 23.199219 C 67.921875 23.09375 67.808594 22.964844 67.71875 22.8125 C 67.632812 22.664062 67.574219 22.5 67.550781 22.328125 C 67.527344 22.152344 67.539062 21.980469 67.582031 21.8125 C 67.6875 21.414062 67.761719 21.011719 67.8125 20.601562 C 67.863281 20.195312 67.886719 19.785156 67.886719 19.371094 C 67.882812 18.960938 67.851562 18.550781 67.796875 18.144531 C 67.738281 17.738281 67.65625 17.335938 67.546875 16.9375 C 67.4375 16.542969 67.300781 16.152344 67.140625 15.773438 C 66.980469 15.394531 66.792969 15.027344 66.585938 14.675781 C 66.375 14.320312 66.144531 13.980469 65.890625 13.65625 C 65.636719 13.332031 65.363281 13.023438 65.070312 12.734375 C 64.777344 12.445312 64.464844 12.175781 64.136719 11.929688 C 63.808594 11.679688 63.464844 11.457031 63.105469 11.253906 C 62.746094 11.050781 62.375 10.871094 61.992188 10.714844 C 61.609375 10.558594 61.21875 10.429688 60.820312 10.328125 C 60.421875 10.222656 60.015625 10.144531 59.609375 10.09375 C 59.199219 10.042969 58.789062 10.019531 58.375 10.023438 C 57.960938 10.023438 57.550781 10.054688 57.144531 10.109375 C 56.734375 10.167969 56.332031 10.25 55.933594 10.359375 Z M 55.933594 10.359375 " fill-opacity="1" fill-rule="evenodd"/></svg>